<svg width="18.024902" height="13.953857" viewBox="0 0 18.0249 13.9539" fill="none" xmlns="http://www.w3.org/2000/svg" xmlns:xlink="http://www.w3.org/1999/xlink">
	<desc>
			Created with Pixso.
	</desc>
	<defs/>
	<g opacity="0.300000">
		<path id="twiiter" d="M18.0249 1.65186C17.3499 1.93652 16.634 2.12354 15.9009 2.20654C16.6633 1.77002 17.2498 1.08032 17.5259 0.257324C16.8 0.667725 16.0059 0.956787 15.1777 1.11206C14.4788 0.401123 13.5012 -0.00170898 12.4788 0C10.4373 0 8.78052 1.5769 8.78052 3.52197C8.78052 3.79834 8.81323 4.06763 8.8772 4.32495C5.80322 4.17773 3.0791 2.77612 1.25488 0.644775C0.936279 1.16431 0.754639 1.77002 0.754639 2.41577C0.754639 3.63721 1.40723 4.71533 2.39917 5.34717C1.81177 5.33008 1.2373 5.17896 0.724121 4.90649L0.724121 4.95142C0.724121 6.65747 1.99878 8.08105 3.6897 8.40552C3.14502 8.5459 2.57422 8.56641 2.02002 8.46558C2.49072 9.86523 3.85693 10.8833 5.47437 10.9128C4.20898 11.856 2.61475 12.4202 0.881836 12.4202C0.587158 12.4199 0.292725 12.4036 0 12.3708C1.63647 13.3699 3.58057 13.9539 5.6687 13.9539C12.4707 13.9539 16.1897 8.58569 16.1897 3.93042C16.1897 3.77832 16.1897 3.62598 16.178 3.47485C16.9016 2.97607 17.5266 2.35889 18.0237 1.65186L18.0249 1.65186Z" fill-rule="nonzero" fill="#FFFFFF"/>
	</g>
</svg>
